<svg width="1759" height="402" viewBox="0 0 1759 402" fill="none" xmlns="http://www.w3.org/2000/svg">
<mask id="path-1-outside-1_430_4" maskUnits="userSpaceOnUse" x="4.9985" y="2.07397" width="1749" height="396" fill="black">
<rect fill="white" x="4.9985" y="2.07397" width="1749" height="396"/>
<path d="M75.9438 181.074H11.4907V11.3865H75.4751C127.741 11.3865 160.319 43.2615 160.319 96.2302C160.319 149.199 127.741 181.074 75.9438 181.074ZM56.0219 143.105H74.3032C100.553 143.105 115.319 132.09 115.319 96.2302C115.319 60.3708 100.553 49.3552 73.1313 49.3552H56.0219V143.105ZM345.241 96.2302C345.241 152.715 309.147 183.418 263.209 183.418C216.803 183.418 180.944 152.48 180.944 96.2302C180.944 39.7458 216.803 9.04272 263.209 9.04272C309.147 9.04272 345.241 39.7458 345.241 96.2302ZM299.303 96.2302C299.303 65.0583 286.413 47.949 263.209 47.949C239.772 47.949 226.881 65.0583 226.881 96.2302C226.881 127.402 239.772 144.511 263.209 144.511C286.413 144.511 299.303 127.402 299.303 96.2302ZM354.147 47.4802V11.3865H500.397V47.4802H449.303V181.074H405.241V47.4802H354.147ZM570.709 181.074V11.3865H615.241V144.98H684.381V181.074H570.709ZM748.131 11.3865V181.074H703.6V11.3865H748.131ZM917.116 11.3865V181.074H879.85L816.803 89.4333H815.631V181.074H771.1V11.3865H809.069L871.178 102.558H872.584V11.3865H917.116ZM940.084 181.074V11.3865H1061.26V47.4802H984.616V78.1833H1054.93V114.277H984.616V144.98H1061.02V181.074H940.084ZM1132.04 47.4802V11.3865H1278.29V47.4802H1227.19V181.074H1183.13V47.4802H1132.04ZM1288.83 11.3865H1338.76L1372.51 80.7615H1373.91L1407.9 11.3865H1457.82L1395.48 126.699V181.074H1351.18V126.699L1288.83 11.3865ZM1473.29 181.074V11.3865H1545.48C1583.44 11.3865 1608.29 35.2927 1608.29 70.9177C1608.29 107.246 1582.74 129.98 1544.07 129.98H1517.82V181.074H1473.29ZM1517.82 95.2927H1535.16C1552.04 95.2927 1561.65 85.9177 1561.65 70.9177C1561.65 56.1521 1552.04 47.0115 1535.16 47.0115H1517.82V95.2927ZM1625.87 181.074V11.3865H1747.04V47.4802H1670.4V78.1833H1740.71V114.277H1670.4V144.98H1746.8V181.074H1625.87ZM71.9497 389.074H19.645L80.8364 205.246H146.598L207.536 389.074H155.485L144.567 353.019H82.8676L71.9497 389.074ZM94.0395 316.457H133.395L114.352 254.758H112.829L94.0395 316.457ZM384 205.246V389.074H343.629L275.329 289.797H274.059V389.074H225.817V205.246H266.95L334.235 304.015H335.758V205.246H384ZM478.707 389.074H408.883V205.246H478.2C534.821 205.246 570.114 239.777 570.114 297.16C570.114 354.543 534.821 389.074 478.707 389.074ZM457.125 347.941H476.93C505.368 347.941 521.364 336.008 521.364 297.16C521.364 258.312 505.368 246.379 475.661 246.379H457.125V347.941ZM749.372 262.121C748.356 249.679 740.231 242.57 723.727 242.57C707.731 242.57 700.622 248.664 700.368 257.297C700.114 266.691 708.747 272.023 725.758 275.578L740.993 279.133C780.602 287.511 798.122 306.808 798.375 334.992C798.122 371.047 770.446 391.359 723.981 391.359C676.5 391.359 645.778 370.539 645.27 325.344H691.481C692.243 342.355 704.176 351.496 723.219 351.496C739.723 351.496 748.61 344.64 748.864 334.992C748.61 326.105 741.247 321.027 720.68 316.457L702.145 312.394C669.899 305.285 650.094 289.289 650.094 260.851C649.84 226.066 680.563 202.707 723.727 202.707C767.907 202.707 795.582 226.32 795.836 262.121H749.372ZM810.055 205.246H864.137L900.7 280.402H902.223L939.04 205.246H993.122L925.582 330.168V389.074H877.594V330.168L810.055 205.246ZM1009.88 205.246H1070.06L1113.73 312.14H1116.01L1159.68 205.246H1219.86V389.074H1172.63V280.91H1171.11L1129.22 387.804H1100.27L1058.63 280.148H1057.11V389.074H1009.88V205.246ZM1244.74 389.074V205.246H1323.45C1365.35 205.246 1387.44 223.273 1387.44 251.457C1387.44 271.769 1372.97 287.258 1352.14 291.574V293.351C1375.25 294.113 1394.55 311.125 1394.55 337.277C1394.55 367.238 1370.17 389.074 1330.06 389.074H1244.74ZM1317.61 350.226C1334.88 350.226 1343.51 343.625 1343.51 331.183C1343.51 317.726 1333.86 310.109 1318.38 310.109H1292.98V350.226H1317.61ZM1314.57 279.894C1328.02 279.894 1337.67 273.293 1337.67 261.613C1337.67 249.933 1328.53 243.332 1315.33 243.332H1292.98V279.894H1314.57ZM1589.8 297.16C1589.8 358.351 1550.7 391.613 1500.93 391.613C1450.66 391.613 1411.81 358.097 1411.81 297.16C1411.81 235.969 1450.66 202.707 1500.93 202.707C1550.7 202.707 1589.8 235.969 1589.8 297.16ZM1540.04 297.16C1540.04 263.39 1526.07 244.855 1500.93 244.855C1475.54 244.855 1461.58 263.39 1461.58 297.16C1461.58 330.929 1475.54 349.465 1500.93 349.465C1526.07 349.465 1540.04 330.929 1540.04 297.16ZM1613.41 389.074V205.246H1661.66V349.972H1736.56V389.074H1613.41Z"/>
</mask>
<path d="M75.9438 181.074H11.4907V11.3865H75.4751C127.741 11.3865 160.319 43.2615 160.319 96.2302C160.319 149.199 127.741 181.074 75.9438 181.074ZM56.0219 143.105H74.3032C100.553 143.105 115.319 132.09 115.319 96.2302C115.319 60.3708 100.553 49.3552 73.1313 49.3552H56.0219V143.105ZM345.241 96.2302C345.241 152.715 309.147 183.418 263.209 183.418C216.803 183.418 180.944 152.48 180.944 96.2302C180.944 39.7458 216.803 9.04272 263.209 9.04272C309.147 9.04272 345.241 39.7458 345.241 96.2302ZM299.303 96.2302C299.303 65.0583 286.413 47.949 263.209 47.949C239.772 47.949 226.881 65.0583 226.881 96.2302C226.881 127.402 239.772 144.511 263.209 144.511C286.413 144.511 299.303 127.402 299.303 96.2302ZM354.147 47.4802V11.3865H500.397V47.4802H449.303V181.074H405.241V47.4802H354.147ZM570.709 181.074V11.3865H615.241V144.98H684.381V181.074H570.709ZM748.131 11.3865V181.074H703.6V11.3865H748.131ZM917.116 11.3865V181.074H879.85L816.803 89.4333H815.631V181.074H771.1V11.3865H809.069L871.178 102.558H872.584V11.3865H917.116ZM940.084 181.074V11.3865H1061.26V47.4802H984.616V78.1833H1054.93V114.277H984.616V144.98H1061.02V181.074H940.084ZM1132.04 47.4802V11.3865H1278.29V47.4802H1227.19V181.074H1183.13V47.4802H1132.04ZM1288.83 11.3865H1338.76L1372.51 80.7615H1373.91L1407.9 11.3865H1457.82L1395.48 126.699V181.074H1351.18V126.699L1288.83 11.3865ZM1473.29 181.074V11.3865H1545.48C1583.44 11.3865 1608.29 35.2927 1608.29 70.9177C1608.29 107.246 1582.74 129.98 1544.07 129.98H1517.82V181.074H1473.29ZM1517.82 95.2927H1535.16C1552.04 95.2927 1561.65 85.9177 1561.65 70.9177C1561.65 56.1521 1552.04 47.0115 1535.16 47.0115H1517.82V95.2927ZM1625.87 181.074V11.3865H1747.04V47.4802H1670.4V78.1833H1740.71V114.277H1670.4V144.98H1746.8V181.074H1625.87ZM71.9497 389.074H19.645L80.8364 205.246H146.598L207.536 389.074H155.485L144.567 353.019H82.8676L71.9497 389.074ZM94.0395 316.457H133.395L114.352 254.758H112.829L94.0395 316.457ZM384 205.246V389.074H343.629L275.329 289.797H274.059V389.074H225.817V205.246H266.95L334.235 304.015H335.758V205.246H384ZM478.707 389.074H408.883V205.246H478.2C534.821 205.246 570.114 239.777 570.114 297.16C570.114 354.543 534.821 389.074 478.707 389.074ZM457.125 347.941H476.93C505.368 347.941 521.364 336.008 521.364 297.16C521.364 258.312 505.368 246.379 475.661 246.379H457.125V347.941ZM749.372 262.121C748.356 249.679 740.231 242.57 723.727 242.57C707.731 242.57 700.622 248.664 700.368 257.297C700.114 266.691 708.747 272.023 725.758 275.578L740.993 279.133C780.602 287.511 798.122 306.808 798.375 334.992C798.122 371.047 770.446 391.359 723.981 391.359C676.5 391.359 645.778 370.539 645.27 325.344H691.481C692.243 342.355 704.176 351.496 723.219 351.496C739.723 351.496 748.61 344.64 748.864 334.992C748.61 326.105 741.247 321.027 720.68 316.457L702.145 312.394C669.899 305.285 650.094 289.289 650.094 260.851C649.84 226.066 680.563 202.707 723.727 202.707C767.907 202.707 795.582 226.32 795.836 262.121H749.372ZM810.055 205.246H864.137L900.7 280.402H902.223L939.04 205.246H993.122L925.582 330.168V389.074H877.594V330.168L810.055 205.246ZM1009.88 205.246H1070.06L1113.73 312.14H1116.01L1159.68 205.246H1219.86V389.074H1172.63V280.91H1171.11L1129.22 387.804H1100.27L1058.63 280.148H1057.11V389.074H1009.88V205.246ZM1244.74 389.074V205.246H1323.45C1365.35 205.246 1387.44 223.273 1387.44 251.457C1387.44 271.769 1372.97 287.258 1352.14 291.574V293.351C1375.25 294.113 1394.55 311.125 1394.55 337.277C1394.55 367.238 1370.17 389.074 1330.06 389.074H1244.74ZM1317.61 350.226C1334.88 350.226 1343.51 343.625 1343.51 331.183C1343.51 317.726 1333.86 310.109 1318.38 310.109H1292.98V350.226H1317.61ZM1314.57 279.894C1328.02 279.894 1337.67 273.293 1337.67 261.613C1337.67 249.933 1328.53 243.332 1315.33 243.332H1292.98V279.894H1314.57ZM1589.8 297.16C1589.8 358.351 1550.7 391.613 1500.93 391.613C1450.66 391.613 1411.81 358.097 1411.81 297.16C1411.81 235.969 1450.66 202.707 1500.93 202.707C1550.7 202.707 1589.8 235.969 1589.8 297.16ZM1540.04 297.16C1540.04 263.39 1526.07 244.855 1500.93 244.855C1475.54 244.855 1461.58 263.39 1461.58 297.16C1461.58 330.929 1475.54 349.465 1500.93 349.465C1526.07 349.465 1540.04 330.929 1540.04 297.16ZM1613.41 389.074V205.246H1661.66V349.972H1736.56V389.074H1613.41Z" fill="black"/>
<path d="M11.4907 181.074H5.09454V187.47H11.4907V181.074ZM11.4907 11.3865V4.99032H5.09454V11.3865H11.4907ZM56.0219 143.105H49.6258V149.501H56.0219V143.105ZM56.0219 49.3552V42.9591H49.6258V49.3552H56.0219ZM75.9438 181.074V174.678H11.4907V181.074V187.47H75.9438V181.074ZM11.4907 181.074H17.8868V11.3865H11.4907H5.09454V181.074H11.4907ZM11.4907 11.3865V17.7826H75.4751V11.3865V4.99032H11.4907V11.3865ZM75.4751 11.3865V17.7826C100.302 17.7826 119.755 25.3282 132.987 38.4814C146.214 51.6284 153.923 71.0714 153.923 96.2302H160.319H166.715C166.715 68.4203 158.135 45.4415 142.006 29.4087C125.883 13.3822 102.914 4.99032 75.4751 4.99032V11.3865ZM160.319 96.2302H153.923C153.923 121.39 146.213 140.838 133.037 153.988C119.857 167.141 100.521 174.678 75.9438 174.678V181.074V187.47C103.164 187.47 126.015 179.069 142.073 163.043C158.136 147.013 166.715 124.04 166.715 96.2302H160.319ZM56.0219 143.105V149.501H74.3032V143.105V136.709H56.0219V143.105ZM74.3032 143.105V149.501C88.156 149.501 100.527 146.617 109.261 137.553C117.922 128.564 121.715 114.826 121.715 96.2302H115.319H108.923C108.923 113.494 105.333 123.193 100.049 128.677C94.8377 134.085 86.7004 136.709 74.3032 136.709V143.105ZM115.319 96.2302H121.715C121.715 77.6394 117.924 63.8615 109.068 54.8598C100.168 45.8135 87.5042 42.9591 73.1313 42.9591V49.3552V55.7514C86.1803 55.7514 94.6102 58.4048 99.9487 63.8312C105.331 69.3021 108.923 78.9617 108.923 96.2302H115.319ZM73.1313 49.3552V42.9591H56.0219V49.3552V55.7514H73.1313V49.3552ZM56.0219 49.3552H49.6258V143.105H56.0219H62.4181V49.3552H56.0219ZM345.241 96.2302H338.845C338.845 123.07 330.302 143.136 316.933 156.478C303.539 169.846 284.744 177.022 263.209 177.022V183.418V189.814C287.613 189.814 309.833 181.638 325.97 165.533C342.132 149.403 351.637 125.875 351.637 96.2302H345.241ZM263.209 183.418V177.022C241.439 177.022 222.589 169.787 209.197 156.395C195.827 143.025 187.34 122.958 187.34 96.2302H180.944H174.548C174.548 125.752 183.99 149.279 200.152 165.44C216.291 181.58 238.573 189.814 263.209 189.814V183.418ZM180.944 96.2302H187.34C187.34 69.3789 195.831 49.3174 209.193 35.9821C222.578 22.6233 241.426 15.4389 263.209 15.4389V9.04272V2.64657C238.586 2.64657 216.302 10.8137 200.156 26.9276C183.987 43.065 174.548 66.5972 174.548 96.2302H180.944ZM263.209 9.04272V15.4389C284.744 15.4389 303.539 22.6143 316.933 35.9821C330.302 49.3245 338.845 69.3907 338.845 96.2302H345.241H351.637C351.637 66.5854 342.132 43.0578 325.97 26.9276C309.833 10.8227 287.613 2.64657 263.209 2.64657V9.04272ZM299.303 96.2302H305.699C305.699 79.901 302.344 66.2667 295.077 56.5654C287.598 46.5824 276.566 41.5528 263.209 41.5528V47.949V54.3451C273.056 54.3451 280.071 57.8703 284.838 64.2349C289.817 70.8812 292.907 81.3876 292.907 96.2302H299.303ZM263.209 47.949V41.5528C249.757 41.5528 238.664 46.566 231.146 56.5537C223.84 66.26 220.485 79.9022 220.485 96.2302H226.881H233.277C233.277 81.3864 236.368 70.8879 241.367 64.2466C246.154 57.8866 253.224 54.3451 263.209 54.3451V47.949ZM226.881 96.2302H220.485C220.485 112.558 223.84 126.2 231.146 135.907C238.664 145.894 249.757 150.908 263.209 150.908V144.511V138.115C253.224 138.115 246.154 134.574 241.367 128.214C236.368 121.573 233.277 111.074 233.277 96.2302H226.881ZM263.209 144.511V150.908C276.566 150.908 287.598 145.878 295.077 135.895C302.344 126.194 305.699 112.559 305.699 96.2302H299.303H292.907C292.907 111.073 289.817 121.579 284.838 128.226C280.071 134.59 273.056 138.115 263.209 138.115V144.511ZM354.147 47.4802H347.751V53.8764H354.147V47.4802ZM354.147 11.3865V4.99032H347.751V11.3865H354.147ZM500.397 11.3865H506.793V4.99032H500.397V11.3865ZM500.397 47.4802V53.8764H506.793V47.4802H500.397ZM449.303 47.4802V41.0841H442.907V47.4802H449.303ZM449.303 181.074V187.47H455.699V181.074H449.303ZM405.241 181.074H398.845V187.47H405.241V181.074ZM405.241 47.4802H411.637V41.0841H405.241V47.4802ZM354.147 47.4802H360.543V11.3865H354.147H347.751V47.4802H354.147ZM354.147 11.3865V17.7826H500.397V11.3865V4.99032H354.147V11.3865ZM500.397 11.3865H494.001V47.4802H500.397H506.793V11.3865H500.397ZM500.397 47.4802V41.0841H449.303V47.4802V53.8764H500.397V47.4802ZM449.303 47.4802H442.907V181.074H449.303H455.699V47.4802H449.303ZM449.303 181.074V174.678H405.241V181.074V187.47H449.303V181.074ZM405.241 181.074H411.637V47.4802H405.241H398.845V181.074H405.241ZM405.241 47.4802V41.0841H354.147V47.4802V53.8764H405.241V47.4802ZM570.709 181.074H564.313V187.47H570.709V181.074ZM570.709 11.3865V4.99032H564.313V11.3865H570.709ZM615.241 11.3865H621.637V4.99032H615.241V11.3865ZM615.241 144.98H608.845V151.376H615.241V144.98ZM684.381 144.98H690.777V138.584H684.381V144.98ZM684.381 181.074V187.47H690.777V181.074H684.381ZM570.709 181.074H577.106V11.3865H570.709H564.313V181.074H570.709ZM570.709 11.3865V17.7826H615.241V11.3865V4.99032H570.709V11.3865ZM615.241 11.3865H608.845V144.98H615.241H621.637V11.3865H615.241ZM615.241 144.98V151.376H684.381V144.98V138.584H615.241V144.98ZM684.381 144.98H677.985V181.074H684.381H690.777V144.98H684.381ZM684.381 181.074V174.678H570.709V181.074V187.47H684.381V181.074ZM748.131 11.3865H754.527V4.99032H748.131V11.3865ZM748.131 181.074V187.47H754.527V181.074H748.131ZM703.6 181.074H697.204V187.47H703.6V181.074ZM703.6 11.3865V4.99032H697.204V11.3865H703.6ZM748.131 11.3865H741.735V181.074H748.131H754.527V11.3865H748.131ZM748.131 181.074V174.678H703.6V181.074V187.47H748.131V181.074ZM703.6 181.074H709.996V11.3865H703.6H697.204V181.074H703.6ZM703.6 11.3865V17.7826H748.131V11.3865V4.99032H703.6V11.3865ZM917.116 11.3865H923.512V4.99032H917.116V11.3865ZM917.116 181.074V187.47H923.512V181.074H917.116ZM879.85 181.074L874.581 184.699L876.487 187.47H879.85V181.074ZM816.803 89.4333L822.073 85.808L820.166 83.0372H816.803V89.4333ZM815.631 89.4333V83.0372H809.235V89.4333H815.631ZM815.631 181.074V187.47H822.027V181.074H815.631ZM771.1 181.074H764.704V187.47H771.1V181.074ZM771.1 11.3865V4.99032H764.704V11.3865H771.1ZM809.069 11.3865L814.355 7.7854L812.451 4.99032H809.069V11.3865ZM871.178 102.558L865.892 106.159L867.796 108.955H871.178V102.558ZM872.584 102.558V108.955H878.981V102.558H872.584ZM872.584 11.3865V4.99032H866.188V11.3865H872.584ZM917.116 11.3865H910.72V181.074H917.116H923.512V11.3865H917.116ZM917.116 181.074V174.678H879.85V181.074V187.47H917.116V181.074ZM879.85 181.074L885.12 177.449L822.073 85.808L816.803 89.4333L811.534 93.0587L874.581 184.699L879.85 181.074ZM816.803 89.4333V83.0372H815.631V89.4333V95.8295H816.803V89.4333ZM815.631 89.4333H809.235V181.074H815.631H822.027V89.4333H815.631ZM815.631 181.074V174.678H771.1V181.074V187.47H815.631V181.074ZM771.1 181.074H777.496V11.3865H771.1H764.704V181.074H771.1ZM771.1 11.3865V17.7826H809.069V11.3865V4.99032H771.1V11.3865ZM809.069 11.3865L803.783 14.9876L865.892 106.159L871.178 102.558L876.464 98.9573L814.355 7.7854L809.069 11.3865ZM871.178 102.558V108.955H872.584V102.558V96.1622H871.178V102.558ZM872.584 102.558H878.981V11.3865H872.584H866.188V102.558H872.584ZM872.584 11.3865V17.7826H917.116V11.3865V4.99032H872.584V11.3865ZM940.084 181.074H933.688V187.47H940.084V181.074ZM940.084 11.3865V4.99032H933.688V11.3865H940.084ZM1061.26 11.3865H1067.65V4.99032H1061.26V11.3865ZM1061.26 47.4802V53.8764H1067.65V47.4802H1061.26ZM984.616 47.4802V41.0841H978.22V47.4802H984.616ZM984.616 78.1833H978.22V84.5795H984.616V78.1833ZM1054.93 78.1833H1061.32V71.7872H1054.93V78.1833ZM1054.93 114.277V120.673H1061.32V114.277H1054.93ZM984.616 114.277V107.881H978.22V114.277H984.616ZM984.616 144.98H978.22V151.376H984.616V144.98ZM1061.02 144.98H1067.42V138.584H1061.02V144.98ZM1061.02 181.074V187.47H1067.42V181.074H1061.02ZM940.084 181.074H946.481V11.3865H940.084H933.688V181.074H940.084ZM940.084 11.3865V17.7826H1061.26V11.3865V4.99032H940.084V11.3865ZM1061.26 11.3865H1054.86V47.4802H1061.26H1067.65V11.3865H1061.26ZM1061.26 47.4802V41.0841H984.616V47.4802V53.8764H1061.26V47.4802ZM984.616 47.4802H978.22V78.1833H984.616H991.012V47.4802H984.616ZM984.616 78.1833V84.5795H1054.93V78.1833V71.7872H984.616V78.1833ZM1054.93 78.1833H1048.53V114.277H1054.93H1061.32V78.1833H1054.93ZM1054.93 114.277V107.881H984.616V114.277V120.673H1054.93V114.277ZM984.616 114.277H978.22V144.98H984.616H991.012V114.277H984.616ZM984.616 144.98V151.376H1061.02V144.98V138.584H984.616V144.98ZM1061.02 144.98H1054.63V181.074H1061.02H1067.42V144.98H1061.02ZM1061.02 181.074V174.678H940.084V181.074V187.47H1061.02V181.074ZM1132.04 47.4802H1125.64V53.8764H1132.04V47.4802ZM1132.04 11.3865V4.99032H1125.64V11.3865H1132.04ZM1278.29 11.3865H1284.68V4.99032H1278.29V11.3865ZM1278.29 47.4802V53.8764H1284.68V47.4802H1278.29ZM1227.19 47.4802V41.0841H1220.8V47.4802H1227.19ZM1227.19 181.074V187.47H1233.59V181.074H1227.19ZM1183.13 181.074H1176.74V187.47H1183.13V181.074ZM1183.13 47.4802H1189.53V41.0841H1183.13V47.4802ZM1132.04 47.4802H1138.43V11.3865H1132.04H1125.64V47.4802H1132.04ZM1132.04 11.3865V17.7826H1278.29V11.3865V4.99032H1132.04V11.3865ZM1278.29 11.3865H1271.89V47.4802H1278.29H1284.68V11.3865H1278.29ZM1278.29 47.4802V41.0841H1227.19V47.4802V53.8764H1278.29V47.4802ZM1227.19 47.4802H1220.8V181.074H1227.19H1233.59V47.4802H1227.19ZM1227.19 181.074V174.678H1183.13V181.074V187.47H1227.19V181.074ZM1183.13 181.074H1189.53V47.4802H1183.13H1176.74V181.074H1183.13ZM1183.13 47.4802V41.0841H1132.04V47.4802V53.8764H1183.13V47.4802ZM1288.83 11.3865V4.99032H1278.11L1283.21 14.4284L1288.83 11.3865ZM1338.76 11.3865L1344.51 8.58838L1342.76 4.99032H1338.76V11.3865ZM1372.51 80.7615L1366.75 83.5596L1368.51 87.1576H1372.51V80.7615ZM1373.91 80.7615V87.1576H1377.9L1379.66 83.5753L1373.91 80.7615ZM1407.9 11.3865V4.99032H1403.91L1402.15 8.5727L1407.9 11.3865ZM1457.82 11.3865L1463.45 14.4284L1468.55 4.99032H1457.82V11.3865ZM1395.48 126.699L1389.85 123.657L1389.08 125.081V126.699H1395.48ZM1395.48 181.074V187.47H1401.87V181.074H1395.48ZM1351.18 181.074H1344.78V187.47H1351.18V181.074ZM1351.18 126.699H1357.57V125.081L1356.8 123.657L1351.18 126.699ZM1288.83 11.3865V17.7826H1338.76V11.3865V4.99032H1288.83V11.3865ZM1338.76 11.3865L1333 14.1846L1366.75 83.5596L1372.51 80.7615L1378.26 77.9634L1344.51 8.58838L1338.76 11.3865ZM1372.51 80.7615V87.1576H1373.91V80.7615V74.3653H1372.51V80.7615ZM1373.91 80.7615L1379.66 83.5753L1413.64 14.2003L1407.9 11.3865L1402.15 8.5727L1368.17 77.9477L1373.91 80.7615ZM1407.9 11.3865V17.7826H1457.82V11.3865V4.99032H1407.9V11.3865ZM1457.82 11.3865L1452.19 8.34452L1389.85 123.657L1395.48 126.699L1401.1 129.741L1463.45 14.4284L1457.82 11.3865ZM1395.48 126.699H1389.08V181.074H1395.48H1401.87V126.699H1395.48ZM1395.48 181.074V174.678H1351.18V181.074V187.47H1395.48V181.074ZM1351.18 181.074H1357.57V126.699H1351.18H1344.78V181.074H1351.18ZM1351.18 126.699L1356.8 123.657L1294.46 8.34452L1288.83 11.3865L1283.21 14.4284L1345.55 129.741L1351.18 126.699ZM1473.29 181.074H1466.89V187.47H1473.29V181.074ZM1473.29 11.3865V4.99032H1466.89V11.3865H1473.29ZM1517.82 129.98V123.584H1511.42V129.98H1517.82ZM1517.82 181.074V187.47H1524.21V181.074H1517.82ZM1517.82 95.2927H1511.42V101.689H1517.82V95.2927ZM1517.82 47.0115V40.6153H1511.42V47.0115H1517.82ZM1473.29 181.074H1479.68V11.3865H1473.29H1466.89V181.074H1473.29ZM1473.29 11.3865V17.7826H1545.48V11.3865V4.99032H1473.29V11.3865ZM1545.48 11.3865V17.7826C1563.11 17.7826 1577.14 23.3138 1586.71 32.4256C1596.25 41.5114 1601.89 54.6478 1601.89 70.9177H1608.29H1614.68C1614.68 51.5626 1607.9 34.9334 1595.53 23.1599C1583.19 11.4123 1565.81 4.99032 1545.48 4.99032V11.3865ZM1608.29 70.9177H1601.89C1601.89 87.5039 1596.11 100.473 1586.37 109.344C1576.57 118.275 1562.17 123.584 1544.07 123.584V129.98V136.376C1564.64 136.376 1582.35 130.319 1594.99 118.8C1607.69 107.222 1614.68 90.6597 1614.68 70.9177H1608.29ZM1544.07 129.98V123.584H1517.82V129.98V136.376H1544.07V129.98ZM1517.82 129.98H1511.42V181.074H1517.82H1524.21V129.98H1517.82ZM1517.82 181.074V174.678H1473.29V181.074V187.47H1517.82V181.074ZM1517.82 95.2927V101.689H1535.16V95.2927V88.8966H1517.82V95.2927ZM1535.16 95.2927V101.689C1544.75 101.689 1553.1 99.0118 1559.1 93.4021C1565.15 87.744 1568.04 79.8212 1568.04 70.9177H1561.65H1555.25C1555.25 77.0142 1553.34 81.279 1550.36 84.0583C1547.34 86.8862 1542.45 88.8966 1535.16 88.8966V95.2927ZM1561.65 70.9177H1568.04C1568.04 62.0979 1565.13 54.2743 1559.05 48.71C1553.05 43.2108 1544.71 40.6153 1535.16 40.6153V47.0115V53.4076C1542.49 53.4076 1547.4 55.3825 1550.41 58.145C1553.36 60.8424 1555.25 64.972 1555.25 70.9177H1561.65ZM1535.16 47.0115V40.6153H1517.82V47.0115V53.4076H1535.16V47.0115ZM1517.82 47.0115H1511.42V95.2927H1517.82H1524.21V47.0115H1517.82ZM1625.87 181.074H1619.47V187.47H1625.87V181.074ZM1625.87 11.3865V4.99032H1619.47V11.3865H1625.87ZM1747.04 11.3865H1753.43V4.99032H1747.04V11.3865ZM1747.04 47.4802V53.8764H1753.43V47.4802H1747.04ZM1670.4 47.4802V41.0841H1664V47.4802H1670.4ZM1670.4 78.1833H1664V84.5795H1670.4V78.1833ZM1740.71 78.1833H1747.11V71.7872H1740.71V78.1833ZM1740.71 114.277V120.673H1747.11V114.277H1740.71ZM1670.4 114.277V107.881H1664V114.277H1670.4ZM1670.4 144.98H1664V151.376H1670.4V144.98ZM1746.8 144.98H1753.2V138.584H1746.8V144.98ZM1746.8 181.074V187.47H1753.2V181.074H1746.8ZM1625.87 181.074H1632.26V11.3865H1625.87H1619.47V181.074H1625.87ZM1625.87 11.3865V17.7826H1747.04V11.3865V4.99032H1625.87V11.3865ZM1747.04 11.3865H1740.64V47.4802H1747.04H1753.43V11.3865H1747.04ZM1747.04 47.4802V41.0841H1670.4V47.4802V53.8764H1747.04V47.4802ZM1670.4 47.4802H1664V78.1833H1670.4H1676.79V47.4802H1670.4ZM1670.4 78.1833V84.5795H1740.71V78.1833V71.7872H1670.4V78.1833ZM1740.71 78.1833H1734.31V114.277H1740.71H1747.11V78.1833H1740.71ZM1740.71 114.277V107.881H1670.4V114.277V120.673H1740.71V114.277ZM1670.4 114.277H1664V144.98H1670.4H1676.79V114.277H1670.4ZM1670.4 144.98V151.376H1746.8V144.98V138.584H1670.4V144.98ZM1746.8 144.98H1740.41V181.074H1746.8H1753.2V144.98H1746.8ZM1746.8 181.074V174.678H1625.87V181.074V187.47H1746.8V181.074ZM71.9497 389.074V395.47H76.6958L78.0713 390.928L71.9497 389.074ZM19.645 389.074L13.5762 387.054L10.7747 395.47H19.645V389.074ZM80.8364 205.246V198.85H76.2243L74.7676 203.226L80.8364 205.246ZM146.598 205.246L152.669 203.233L151.216 198.85H146.598V205.246ZM207.536 389.074V395.47H216.394L213.607 387.061L207.536 389.074ZM155.485 389.074L149.363 390.928L150.739 395.47H155.485V389.074ZM144.567 353.019L150.688 351.166L149.313 346.623H144.567V353.019ZM82.8676 353.019V346.623H78.1215L76.746 351.166L82.8676 353.019ZM94.0395 316.457L87.9208 314.593L85.4056 322.853H94.0395V316.457ZM133.395 316.457V322.853H142.063L139.507 314.57L133.395 316.457ZM114.352 254.758L120.464 252.871L119.072 248.361H114.352V254.758ZM112.829 254.758V248.361H108.09L106.71 252.894L112.829 254.758ZM71.9497 389.074V382.678H19.645V389.074V395.47H71.9497V389.074ZM19.645 389.074L25.7137 391.094L86.9052 207.266L80.8364 205.246L74.7676 203.226L13.5762 387.054L19.645 389.074ZM80.8364 205.246V211.642H146.598V205.246V198.85H80.8364V205.246ZM146.598 205.246L140.527 207.258L201.464 391.087L207.536 389.074L213.607 387.061L152.669 203.233L146.598 205.246ZM207.536 389.074V382.678H155.485V389.074V395.47H207.536V389.074ZM155.485 389.074L161.606 387.22L150.688 351.166L144.567 353.019L138.445 354.873L149.363 390.928L155.485 389.074ZM144.567 353.019V346.623H82.8676V353.019V359.415H144.567V353.019ZM82.8676 353.019L76.746 351.166L65.828 387.22L71.9497 389.074L78.0713 390.928L88.9893 354.873L82.8676 353.019ZM94.0395 316.457V322.853H133.395V316.457V310.061H94.0395V316.457ZM133.395 316.457L139.507 314.57L120.464 252.871L114.352 254.758L108.24 256.644L127.283 318.343L133.395 316.457ZM114.352 254.758V248.361H112.829V254.758V261.154H114.352V254.758ZM112.829 254.758L106.71 252.894L87.9208 314.593L94.0395 316.457L100.158 318.32L118.947 256.621L112.829 254.758ZM384 205.246H390.397V198.85H384V205.246ZM384 389.074V395.47H390.397V389.074H384ZM343.629 389.074L338.36 392.699L340.266 395.47H343.629V389.074ZM275.329 289.797L280.598 286.171L278.692 283.4H275.329V289.797ZM274.059 289.797V283.4H267.663V289.797H274.059ZM274.059 389.074V395.47H280.455V389.074H274.059ZM225.817 389.074H219.421V395.47H225.817V389.074ZM225.817 205.246V198.85H219.421V205.246H225.817ZM266.95 205.246L272.236 201.645L270.332 198.85H266.95V205.246ZM334.235 304.015L328.949 307.616L330.853 310.412H334.235V304.015ZM335.758 304.015V310.412H342.154V304.015H335.758ZM335.758 205.246V198.85H329.362V205.246H335.758ZM384 205.246H377.604V389.074H384H390.397V205.246H384ZM384 389.074V382.678H343.629V389.074V395.47H384V389.074ZM343.629 389.074L348.899 385.449L280.598 286.171L275.329 289.797L270.059 293.422L338.36 392.699L343.629 389.074ZM275.329 289.797V283.4H274.059V289.797V296.193H275.329V289.797ZM274.059 289.797H267.663V389.074H274.059H280.455V289.797H274.059ZM274.059 389.074V382.678H225.817V389.074V395.47H274.059V389.074ZM225.817 389.074H232.213V205.246H225.817H219.421V389.074H225.817ZM225.817 205.246V211.642H266.95V205.246V198.85H225.817V205.246ZM266.95 205.246L261.664 208.847L328.949 307.616L334.235 304.015L339.521 300.414L272.236 201.645L266.95 205.246ZM334.235 304.015V310.412H335.758V304.015V297.619H334.235V304.015ZM335.758 304.015H342.154V205.246H335.758H329.362V304.015H335.758ZM335.758 205.246V211.642H384V205.246V198.85H335.758V205.246ZM408.883 389.074H402.487V395.47H408.883V389.074ZM408.883 205.246V198.85H402.487V205.246H408.883ZM457.125 347.941H450.729V354.337H457.125V347.941ZM457.125 246.379V239.983H450.729V246.379H457.125ZM478.707 389.074V382.678H408.883V389.074V395.47H478.707V389.074ZM408.883 389.074H415.279V205.246H408.883H402.487V389.074H408.883ZM408.883 205.246V211.642H478.2V205.246V198.85H408.883V205.246ZM478.2 205.246V211.642C505.204 211.642 526.425 219.852 540.88 234.221C555.33 248.583 563.718 269.794 563.718 297.16H570.114H576.51C576.51 267.143 567.251 242.397 549.899 225.148C532.553 207.906 507.817 198.85 478.2 198.85V205.246ZM570.114 297.16H563.718C563.718 324.526 555.329 345.743 540.935 360.108C526.537 374.477 505.443 382.678 478.707 382.678V389.074V395.47C508.086 395.47 532.694 386.405 549.971 369.163C567.252 351.917 576.51 327.176 576.51 297.16H570.114ZM457.125 347.941V354.337H476.93V347.941V341.545H457.125V347.941ZM476.93 347.941V354.337C491.877 354.337 505.102 351.224 514.417 341.556C523.659 331.965 527.76 317.25 527.76 297.16H521.364H514.968C514.968 315.917 511.07 326.593 505.205 332.68C499.413 338.692 490.421 341.545 476.93 341.545V347.941ZM521.364 297.16H527.76C527.76 277.075 523.661 262.32 514.212 252.716C504.719 243.066 491.176 239.983 475.661 239.983V246.379V252.775C489.852 252.775 499.161 255.658 505.093 261.687C511.068 267.761 514.968 278.397 514.968 297.16H521.364ZM475.661 246.379V239.983H457.125V246.379V252.775H475.661V246.379ZM457.125 246.379H450.729V347.941H457.125H463.522V246.379H457.125ZM749.372 262.121L742.997 262.641L743.476 268.517H749.372V262.121ZM700.368 257.297L693.974 257.109L693.974 257.116L693.974 257.124L700.368 257.297ZM725.758 275.578L727.212 269.349L727.139 269.332L727.067 269.317L725.758 275.578ZM740.993 279.133L739.539 285.361L739.604 285.376L739.669 285.39L740.993 279.133ZM798.375 334.992L804.771 335.037L804.772 334.986L804.771 334.934L798.375 334.992ZM645.27 325.344V318.947H638.802L638.874 325.415L645.27 325.344ZM691.481 325.344L697.871 325.057L697.597 318.947H691.481V325.344ZM748.864 334.992L755.258 335.16L755.262 334.985L755.257 334.809L748.864 334.992ZM720.68 316.457L722.068 310.213L722.059 310.211L722.05 310.209L720.68 316.457ZM702.145 312.394L700.768 318.64L700.776 318.642L702.145 312.394ZM650.094 260.851H656.49V260.828L656.49 260.805L650.094 260.851ZM795.836 262.121V268.517H802.278L802.232 262.075L795.836 262.121ZM749.372 262.121L755.746 261.6C755.129 254.034 752.237 247.331 746.321 242.66C740.564 238.115 732.796 236.174 723.727 236.174V242.57V248.966C731.162 248.966 735.708 250.58 738.394 252.7C740.92 254.694 742.599 257.766 742.997 262.641L749.372 262.121ZM723.727 242.57V236.174C715.054 236.174 707.821 237.804 702.535 241.415C696.956 245.228 694.158 250.847 693.974 257.109L700.368 257.297L706.761 257.485C706.831 255.113 707.715 253.369 709.753 251.977C712.085 250.383 716.403 248.966 723.727 248.966V242.57ZM700.368 257.297L693.974 257.124C693.779 264.327 697.223 269.913 702.941 273.882C708.274 277.583 715.714 280.013 724.45 281.839L725.758 275.578L727.067 269.317C718.791 267.588 713.408 265.575 710.235 263.373C707.447 261.438 706.702 259.661 706.761 257.469L700.368 257.297ZM725.758 275.578L724.305 281.807L739.539 285.361L740.993 279.133L742.446 272.904L727.212 269.349L725.758 275.578ZM740.993 279.133L739.669 285.39C758.774 289.432 771.736 295.947 779.912 304.151C787.935 312.201 791.866 322.39 791.98 335.05L798.375 334.992L804.771 334.934C804.631 319.41 799.676 305.859 788.973 295.12C778.423 284.535 762.821 277.212 742.316 272.875L740.993 279.133ZM798.375 334.992L791.979 334.947C791.865 351.156 785.692 363.298 774.666 371.582C763.397 380.048 746.397 384.963 723.981 384.963V391.359V397.755C748.03 397.755 768.1 392.514 782.349 381.81C796.84 370.924 804.632 354.883 804.771 335.037L798.375 334.992ZM723.981 391.359V384.963C701.05 384.963 683.122 379.919 670.986 370.289C659.082 360.843 651.902 346.308 651.666 325.272L645.27 325.344L638.874 325.415C639.146 349.574 647.581 368.048 663.035 380.31C678.258 392.389 699.431 397.755 723.981 397.755V391.359ZM645.27 325.344V331.74H691.481V325.344V318.947H645.27V325.344ZM691.481 325.344L685.091 325.63C685.541 335.681 689.383 344.043 696.474 349.774C703.417 355.385 712.751 357.892 723.219 357.892V351.496V345.1C714.644 345.1 708.49 343.037 704.515 339.824C700.688 336.732 698.182 332.018 697.871 325.057L691.481 325.344ZM723.219 351.496V357.892C732.254 357.892 739.998 356.03 745.719 352.16C751.649 348.149 755.073 342.161 755.258 335.16L748.864 334.992L742.47 334.824C742.4 337.471 741.255 339.736 738.551 341.564C735.64 343.534 730.689 345.1 723.219 345.1V351.496ZM748.864 334.992L755.257 334.809C755.168 331.681 754.434 328.621 752.771 325.769C751.126 322.945 748.77 320.665 745.928 318.778C740.442 315.133 732.469 312.524 722.068 310.213L720.68 316.457L719.293 322.701C729.457 324.959 735.45 327.175 738.85 329.433C740.452 330.498 741.27 331.439 741.719 332.21C742.151 332.952 742.433 333.859 742.47 335.175L748.864 334.992ZM720.68 316.457L722.05 310.209L703.514 306.146L702.145 312.394L700.776 318.642L719.311 322.705L720.68 316.457ZM702.145 312.394L703.522 306.148C688.012 302.729 676.236 297.318 668.408 289.96C660.778 282.789 656.49 273.398 656.49 260.851H650.094H643.698C643.698 276.742 649.313 289.568 659.647 299.281C669.783 308.809 684.032 314.951 700.768 318.64L702.145 312.394ZM650.094 260.851L656.49 260.805C656.378 245.501 663.003 232.806 674.566 223.776C686.25 214.65 703.24 209.103 723.727 209.103V202.707V196.311C701.05 196.311 681.097 202.443 666.692 213.694C652.166 225.039 643.556 241.417 643.698 260.898L650.094 260.851ZM723.727 202.707V209.103C744.726 209.103 761.115 214.713 772.163 223.905C783.1 233.005 789.326 246.032 789.44 262.166L795.836 262.121L802.232 262.075C802.093 242.409 794.354 225.729 780.345 214.072C766.447 202.508 746.908 196.311 723.727 196.311V202.707ZM795.836 262.121V255.725H749.372V262.121V268.517H795.836V262.121ZM810.055 205.246V198.85H799.326L804.429 208.288L810.055 205.246ZM864.137 205.246L869.889 202.448L868.138 198.85H864.137V205.246ZM900.7 280.402L894.948 283.2L896.698 286.798H900.7V280.402ZM902.223 280.402V286.798H906.212L907.967 283.216L902.223 280.402ZM939.04 205.246V198.85H935.05L933.296 202.432L939.04 205.246ZM993.122 205.246L998.748 208.288L1003.85 198.85H993.122V205.246ZM925.582 330.168L919.956 327.126L919.186 328.549V330.168H925.582ZM925.582 389.074V395.47H931.979V389.074H925.582ZM877.594 389.074H871.198V395.47H877.594V389.074ZM877.594 330.168H883.99V328.549L883.221 327.126L877.594 330.168ZM810.055 205.246V211.642H864.137V205.246V198.85H810.055V205.246ZM864.137 205.246L858.386 208.044L894.948 283.2L900.7 280.402L906.451 277.604L869.889 202.448L864.137 205.246ZM900.7 280.402V286.798H902.223V280.402V274.006H900.7V280.402ZM902.223 280.402L907.967 283.216L944.784 208.06L939.04 205.246L933.296 202.432L896.479 277.588L902.223 280.402ZM939.04 205.246V211.642H993.122V205.246V198.85H939.04V205.246ZM993.122 205.246L987.495 202.204L919.956 327.126L925.582 330.168L931.209 333.21L998.748 208.288L993.122 205.246ZM925.582 330.168H919.186V389.074H925.582H931.979V330.168H925.582ZM925.582 389.074V382.678H877.594V389.074V395.47H925.582V389.074ZM877.594 389.074H883.99V330.168H877.594H871.198V389.074H877.594ZM877.594 330.168L883.221 327.126L815.682 202.204L810.055 205.246L804.429 208.288L871.968 333.21L877.594 330.168ZM1009.88 205.246V198.85H1003.48V205.246H1009.88ZM1070.06 205.246L1075.98 202.827L1074.35 198.85H1070.06V205.246ZM1113.73 312.14L1107.81 314.559L1109.43 318.537H1113.73V312.14ZM1116.01 312.14V318.537H1120.31L1121.93 314.559L1116.01 312.14ZM1159.68 205.246V198.85H1155.39L1153.76 202.827L1159.68 205.246ZM1219.86 205.246H1226.26V198.85H1219.86V205.246ZM1219.86 389.074V395.47H1226.26V389.074H1219.86ZM1172.63 389.074H1166.24V395.47H1172.63V389.074ZM1172.63 280.91H1179.03V274.514H1172.63V280.91ZM1171.11 280.91V274.514H1166.75L1165.15 278.576L1171.11 280.91ZM1129.22 387.804V394.201H1133.58L1135.17 390.138L1129.22 387.804ZM1100.27 387.804L1094.3 390.112L1095.89 394.201H1100.27V387.804ZM1058.63 280.148L1064.59 277.841L1063.01 273.752H1058.63V280.148ZM1057.11 280.148V273.752H1050.71V280.148H1057.11ZM1057.11 389.074V395.47H1063.5V389.074H1057.11ZM1009.88 389.074H1003.48V395.47H1009.88V389.074ZM1009.88 205.246V211.642H1070.06V205.246V198.85H1009.88V205.246ZM1070.06 205.246L1064.13 207.665L1107.81 314.559L1113.73 312.14L1119.65 309.721L1075.98 202.827L1070.06 205.246ZM1113.73 312.14V318.537H1116.01V312.14V305.744H1113.73V312.14ZM1116.01 312.14L1121.93 314.559L1165.61 207.665L1159.68 205.246L1153.76 202.827L1110.09 309.721L1116.01 312.14ZM1159.68 205.246V211.642H1219.86V205.246V198.85H1159.68V205.246ZM1219.86 205.246H1213.46V389.074H1219.86H1226.26V205.246H1219.86ZM1219.86 389.074V382.678H1172.63V389.074V395.47H1219.86V389.074ZM1172.63 389.074H1179.03V280.91H1172.63H1166.24V389.074H1172.63ZM1172.63 280.91V274.514H1171.11V280.91V287.306H1172.63V280.91ZM1171.11 280.91L1165.15 278.576L1123.26 385.47L1129.22 387.804L1135.17 390.138L1177.06 283.244L1171.11 280.91ZM1129.22 387.804V381.408H1100.27V387.804V394.201H1129.22V387.804ZM1100.27 387.804L1106.24 385.497L1064.59 277.841L1058.63 280.148L1052.66 282.456L1094.3 390.112L1100.27 387.804ZM1058.63 280.148V273.752H1057.11V280.148V286.544H1058.63V280.148ZM1057.11 280.148H1050.71V389.074H1057.11H1063.5V280.148H1057.11ZM1057.11 389.074V382.678H1009.88V389.074V395.47H1057.11V389.074ZM1009.88 389.074H1016.28V205.246H1009.88H1003.48V389.074H1009.88ZM1244.74 389.074H1238.35V395.47H1244.74V389.074ZM1244.74 205.246V198.85H1238.35V205.246H1244.74ZM1352.14 291.574L1350.85 285.311L1345.75 286.368V291.574H1352.14ZM1352.14 293.351H1345.75V299.54L1351.93 299.744L1352.14 293.351ZM1292.98 310.109V303.713H1286.59V310.109H1292.98ZM1292.98 350.226H1286.59V356.622H1292.98V350.226ZM1292.98 243.332V236.936H1286.59V243.332H1292.98ZM1292.98 279.894H1286.59V286.29H1292.98V279.894ZM1244.74 389.074H1251.14V205.246H1244.74H1238.35V389.074H1244.74ZM1244.74 205.246V211.642H1323.45V205.246V198.85H1244.74V205.246ZM1323.45 205.246V211.642C1343.6 211.642 1358.06 215.993 1367.33 222.908C1376.35 229.643 1381.04 239.232 1381.04 251.457H1387.44H1393.83C1393.83 235.498 1387.48 221.981 1374.98 212.656C1362.73 203.513 1345.2 198.85 1323.45 198.85V205.246ZM1387.44 251.457H1381.04C1381.04 268.237 1369.22 281.503 1350.85 285.311L1352.14 291.574L1353.44 297.837C1376.71 293.013 1393.83 275.301 1393.83 251.457H1387.44ZM1352.14 291.574H1345.75V293.351H1352.14H1358.54V291.574H1352.14ZM1352.14 293.351L1351.93 299.744C1371.86 300.401 1388.15 314.841 1388.15 337.277H1394.55H1400.94C1400.94 307.408 1378.64 287.825 1352.36 286.959L1352.14 293.351ZM1394.55 337.277H1388.15C1388.15 350.391 1382.88 361.521 1373.26 369.486C1363.56 377.527 1348.99 382.678 1330.06 382.678V389.074V395.47C1351.23 395.47 1368.91 389.703 1381.43 379.336C1394.03 368.893 1400.94 354.124 1400.94 337.277H1394.55ZM1330.06 389.074V382.678H1244.74V389.074V395.47H1330.06V389.074ZM1317.61 350.226V356.622C1326.89 356.622 1334.96 354.878 1340.85 350.505C1347.08 345.882 1349.91 339.046 1349.91 331.183H1343.51H1337.12C1337.12 335.762 1335.63 338.447 1333.22 340.235C1330.48 342.273 1325.6 343.83 1317.61 343.83V350.226ZM1343.51 331.183H1349.91C1349.91 322.799 1346.83 315.62 1340.82 310.666C1334.98 305.849 1327.08 303.713 1318.38 303.713V310.109V316.505C1325.16 316.505 1329.83 318.178 1332.68 320.534C1335.37 322.753 1337.12 326.111 1337.12 331.183H1343.51ZM1318.38 310.109V303.713H1292.98V310.109V316.505H1318.38V310.109ZM1292.98 310.109H1286.59V350.226H1292.98H1299.38V310.109H1292.98ZM1292.98 350.226V356.622H1317.61V350.226V343.83H1292.98V350.226ZM1314.57 279.894V286.29C1322.25 286.29 1329.52 284.415 1335.04 280.227C1340.74 275.892 1344.07 269.428 1344.07 261.613H1337.67H1331.28C1331.28 265.478 1329.78 268.154 1327.3 270.04C1324.62 272.073 1320.34 273.498 1314.57 273.498V279.894ZM1337.67 261.613H1344.07C1344.07 253.927 1340.97 247.464 1335.42 243.074C1330.04 238.825 1322.91 236.936 1315.33 236.936V243.332V249.728C1320.95 249.728 1324.99 251.139 1327.49 253.111C1329.8 254.941 1331.28 257.619 1331.28 261.613H1337.67ZM1315.33 243.332V236.936H1292.98V243.332V249.728H1315.33V243.332ZM1292.98 243.332H1286.59V279.894H1292.98H1299.38V243.332H1292.98ZM1292.98 279.894V286.29H1314.57V279.894V273.498H1292.98V279.894ZM1589.8 297.16H1583.41C1583.41 326.353 1574.11 348.236 1559.51 362.806C1544.89 377.402 1524.38 385.217 1500.93 385.217V391.613V398.009C1527.25 398.009 1551.18 389.193 1568.55 371.861C1585.94 354.502 1596.2 329.158 1596.2 297.16H1589.8ZM1500.93 391.613V385.217C1477.23 385.217 1456.67 377.338 1442.04 362.715C1427.44 348.115 1418.21 326.232 1418.21 297.16H1411.81H1405.42C1405.42 329.026 1415.61 354.369 1433 371.761C1450.37 389.131 1474.36 398.009 1500.93 398.009V391.613ZM1411.81 297.16H1418.21C1418.21 267.955 1427.45 246.077 1442.04 231.514C1456.66 216.927 1477.22 209.103 1500.93 209.103V202.707V196.311C1474.38 196.311 1450.38 205.117 1433 222.459C1415.6 239.825 1405.42 265.173 1405.42 297.16H1411.81ZM1500.93 202.707V209.103C1524.38 209.103 1544.89 216.918 1559.51 231.514C1574.11 246.084 1583.41 267.967 1583.41 297.16H1589.8H1596.2C1596.2 265.162 1585.94 239.818 1568.55 222.459C1551.18 205.126 1527.25 196.311 1500.93 196.311V202.707ZM1540.04 297.16H1546.43C1546.43 279.532 1542.81 264.892 1535.03 254.509C1527.04 243.845 1515.26 238.459 1500.93 238.459V244.855V251.251C1511.75 251.251 1519.51 255.133 1524.79 262.179C1530.28 269.506 1533.64 281.018 1533.64 297.16H1540.04ZM1500.93 244.855V238.459C1486.51 238.459 1474.65 243.829 1466.62 254.498C1458.81 264.885 1455.18 279.533 1455.18 297.16H1461.58H1467.97C1467.97 281.017 1471.33 269.513 1476.85 262.19C1482.14 255.149 1489.97 251.251 1500.93 251.251V244.855ZM1461.58 297.16H1455.18C1455.18 314.787 1458.81 329.435 1466.62 339.822C1474.65 350.491 1486.51 355.861 1500.93 355.861V349.465V343.068C1489.97 343.068 1482.14 339.171 1476.85 332.129C1471.33 324.807 1467.97 313.303 1467.97 297.16H1461.58ZM1500.93 349.465V355.861C1515.26 355.861 1527.04 350.475 1535.03 339.811C1542.81 329.428 1546.43 314.788 1546.43 297.16H1540.04H1533.64C1533.64 313.301 1530.28 324.814 1524.79 332.141C1519.51 339.187 1511.75 343.068 1500.93 343.068V349.465ZM1613.41 389.074H1607.02V395.47H1613.41V389.074ZM1613.41 205.246V198.85H1607.02V205.246H1613.41ZM1661.66 205.246H1668.05V198.85H1661.66V205.246ZM1661.66 349.972H1655.26V356.369H1661.66V349.972ZM1736.56 349.972H1742.96V343.576H1736.56V349.972ZM1736.56 389.074V395.47H1742.96V389.074H1736.56ZM1613.41 389.074H1619.81V205.246H1613.41H1607.02V389.074H1613.41ZM1613.41 205.246V211.642H1661.66V205.246V198.85H1613.41V205.246ZM1661.66 205.246H1655.26V349.972H1661.66H1668.05V205.246H1661.66ZM1661.66 349.972V356.369H1736.56V349.972V343.576H1661.66V349.972ZM1736.56 349.972H1730.16V389.074H1736.56H1742.96V349.972H1736.56ZM1736.56 389.074V382.678H1613.41V389.074V395.47H1736.56V389.074Z" fill="black" mask="url(#path-1-outside-1_430_4)"/>
</svg>
